<svg xmlns="http://www.w3.org/2000/svg" width="181.63" height="35" viewBox="0 0 181.63 35"><rect class="svg__rect" x="0" y="0" width="77.83" height="35" fill="#AE0001"/><rect class="svg__rect" x="75.83" y="0" width="105.8" height="35" fill="#EEBA30"/><path class="svg__text" d="M15.70 22L14.22 22L14.22 13.47L15.70 13.47L15.70 17.02L19.51 17.02L19.51 13.47L20.99 13.47L20.99 22L19.51 22L19.51 18.21L15.70 18.21L15.70 22ZM26.51 22L24.97 22L28.19 13.47L29.52 13.47L32.75 22L31.20 22L30.51 20.01L27.20 20.01L26.51 22ZM28.85 15.28L27.62 18.82L30.09 18.82L28.85 15.28ZM38.19 22L36.71 22L36.71 13.47L39.71 13.47Q41.18 13.47 41.98 14.13Q42.79 14.79 42.79 16.05L42.79 16.05Q42.79 16.90 42.37 17.48Q41.96 18.06 41.22 18.37L41.22 18.37L43.14 21.92L43.14 22L41.55 22L39.84 18.71L38.19 18.71L38.19 22ZM38.19 14.66L38.19 17.52L39.71 17.52Q40.46 17.52 40.88 17.15Q41.31 16.77 41.31 16.11L41.31 16.11Q41.31 15.43 40.92 15.05Q40.53 14.68 39.75 14.66L39.75 14.66L38.19 14.66ZM48.66 22L47.18 22L47.18 13.47L50.18 13.47Q51.66 13.47 52.46 14.13Q53.26 14.79 53.26 16.05L53.26 16.05Q53.26 16.90 52.85 17.48Q52.44 18.06 51.70 18.37L51.70 18.37L53.62 21.92L53.62 22L52.03 22L50.32 18.71L48.66 18.71L48.66 22ZM48.66 14.66L48.66 17.52L50.19 17.52Q50.94 17.52 51.36 17.15Q51.78 16.77 51.78 16.11L51.78 16.11Q51.78 15.43 51.39 15.05Q51.00 14.68 50.23 14.66L50.23 14.66L48.66 14.66ZM59.70 18.86L56.83 13.47L58.48 13.47L60.44 17.51L62.40 13.47L64.05 13.47L61.19 18.86L61.19 22L59.70 22L59.70 18.86Z" fill="#EEBA30"/><path class="svg__text" d="M92.40 22L90.02 22L90.02 13.60L93.86 13.60Q95.00 13.60 95.84 13.98Q96.68 14.35 97.14 15.06Q97.59 15.76 97.59 16.71L97.59 16.71Q97.59 17.66 97.14 18.35Q96.68 19.05 95.84 19.42Q95.00 19.80 93.86 19.80L93.86 19.80L92.40 19.80L92.40 22ZM92.40 15.47L92.40 17.93L93.72 17.93Q94.45 17.93 94.82 17.61Q95.19 17.29 95.19 16.71L95.19 16.71Q95.19 16.12 94.82 15.80Q94.45 15.47 93.72 15.47L93.72 15.47L92.40 15.47ZM101.92 17.80L101.92 17.80Q101.92 16.55 102.52 15.55Q103.13 14.56 104.19 14.00Q105.25 13.43 106.58 13.43L106.58 13.43Q107.91 13.43 108.98 14.00Q110.04 14.56 110.65 15.55Q111.25 16.55 111.25 17.80L111.25 17.80Q111.25 19.05 110.65 20.04Q110.04 21.04 108.98 21.60Q107.92 22.17 106.58 22.17L106.58 22.17Q105.25 22.17 104.19 21.60Q103.13 21.04 102.52 20.04Q101.92 19.05 101.92 17.80ZM104.31 17.80L104.31 17.80Q104.31 18.51 104.62 19.05Q104.92 19.60 105.43 19.90Q105.95 20.20 106.58 20.20L106.58 20.20Q107.22 20.20 107.74 19.90Q108.25 19.60 108.55 19.05Q108.85 18.51 108.85 17.80L108.85 17.80Q108.85 17.09 108.55 16.54Q108.25 16 107.74 15.70Q107.22 15.40 106.58 15.40L106.58 15.40Q105.94 15.40 105.43 15.70Q104.92 16 104.62 16.54Q104.31 17.09 104.31 17.80ZM117.77 15.48L115.19 15.48L115.19 13.60L122.71 13.60L122.71 15.48L120.15 15.48L120.15 22L117.77 22L117.77 15.48ZM128.88 15.48L126.29 15.48L126.29 13.60L133.82 13.60L133.82 15.48L131.25 15.48L131.25 22L128.88 22L128.88 15.48ZM144.93 22L138.19 22L138.19 13.60L144.78 13.60L144.78 15.44L140.54 15.44L140.54 16.85L144.28 16.85L144.28 18.63L140.54 18.63L140.54 20.17L144.93 20.17L144.93 22ZM152.12 22L149.74 22L149.74 13.60L153.58 13.60Q154.72 13.60 155.56 13.98Q156.40 14.35 156.86 15.06Q157.31 15.76 157.31 16.71L157.31 16.71Q157.31 17.62 156.89 18.30Q156.46 18.98 155.67 19.36L155.67 19.36L157.48 22L154.93 22L153.41 19.77L152.12 19.77L152.12 22ZM152.12 15.47L152.12 17.93L153.43 17.93Q154.17 17.93 154.54 17.61Q154.91 17.29 154.91 16.71L154.91 16.71Q154.91 16.12 154.54 15.79Q154.17 15.47 153.43 15.47L153.43 15.47L152.12 15.47ZM164.23 18.95L161.02 13.60L163.53 13.60L165.52 16.94L167.51 13.60L169.82 13.60L166.60 18.99L166.60 22L164.23 22L164.23 18.95Z" fill="#AE0001" x="88.83"/></svg>